<svg width="200" height="49" viewBox="0 0 200 49" fill="none" xmlns="http://www.w3.org/2000/svg">
<path d="M46.009 43.4765C38.7951 43.4765 35.188 41.3008 35.188 36.9492V29.715C35.188 27.1927 36.002 25.3633 37.6301 24.227C39.2862 23.0906 41.8266 22.5224 45.2511 22.5224C48.4793 22.5224 50.8372 23.0767 52.3248 24.1854C53.8406 25.2664 54.5985 27.1095 54.5985 29.715V34.6209H41.3775V36.4502C41.3775 37.6144 41.7985 38.4459 42.6406 38.9448C43.4827 39.4437 44.9985 39.6932 47.188 39.6932C49.209 39.6932 51.4827 39.4021 54.009 38.8201V42.6866C51.5108 43.2133 48.8441 43.4765 46.009 43.4765ZM48.7459 31.1701V28.2598C48.7459 27.5946 48.4651 27.0957 47.9038 26.7631C47.3704 26.4305 46.4582 26.2642 45.1669 26.2642C43.6793 26.2642 42.6827 26.4305 42.1775 26.7631C41.6441 27.1235 41.3775 27.6224 41.3775 28.2598V31.1701H48.7459ZM69.5287 43.4765C62.3148 43.4765 58.7077 41.3008 58.7077 36.9492V29.715C58.7077 27.1927 59.5218 25.3633 61.1498 24.227C62.806 23.0906 65.3463 22.5224 68.7708 22.5224C71.999 22.5224 74.3569 23.0767 75.8445 24.1854C77.3603 25.2664 78.1182 27.1095 78.1182 29.715V34.6209H64.8972V36.4502C64.8972 37.6144 65.3182 38.4459 66.1603 38.9448C67.0024 39.4437 68.5182 39.6932 70.7077 39.6932C72.7287 39.6932 75.0024 39.4021 77.5287 38.8201V42.6866C75.0305 43.2133 72.3639 43.4765 69.5287 43.4765ZM72.2656 31.1701V28.2598C72.2656 27.5946 71.985 27.0957 71.4235 26.7631C70.8902 26.4305 69.9779 26.2642 68.6866 26.2642C67.199 26.2642 66.2024 26.4305 65.6972 26.7631C65.1639 27.1235 64.8972 27.6224 64.8972 28.2598V31.1701H72.2656ZM90.6484 43.4765C88.2345 43.4765 86.452 43.3102 85.3012 42.9776C84.1502 42.6173 83.3502 41.9521 82.9011 40.982C82.452 40.0119 82.2275 38.5013 82.2275 36.4502V28.5924C82.2275 26.3751 82.8591 24.809 84.1223 23.8944C85.4134 22.9797 87.4907 22.5224 90.3539 22.5224C91.7012 22.5224 92.7539 22.6055 93.5117 22.7718C94.2976 22.9104 94.9292 23.1738 95.4065 23.5618C95.8836 23.9221 96.3749 24.4626 96.8802 25.1832V13.9578H103.028V43.0608H97.0907V40.7741C96.5854 41.5779 96.1223 42.1461 95.7012 42.4787C95.3081 42.7836 94.7468 43.0192 94.017 43.1855C93.2591 43.3796 92.1363 43.4765 90.6484 43.4765ZM92.2065 39.6932C93.5818 39.6932 94.5924 39.6238 95.2381 39.4853C95.8836 39.3467 96.3187 39.0973 96.5433 38.7369C96.7678 38.3489 96.8802 37.7807 96.8802 37.0323V28.925C96.8802 28.2321 96.7539 27.7055 96.5012 27.3452C96.2766 26.9572 95.8555 26.6799 95.2381 26.5136C94.6486 26.3473 93.7502 26.2642 92.5433 26.2642C91.2521 26.2642 90.3257 26.3473 89.7644 26.5136C89.2029 26.6522 88.8239 26.9156 88.6275 27.3036C88.4591 27.664 88.3749 28.2736 88.3749 29.1329V36.8244C88.3749 37.6006 88.4591 38.1964 88.6275 38.6122C88.8239 39.0002 89.1889 39.2774 89.7223 39.4437C90.2555 39.61 91.0836 39.6932 92.2065 39.6932ZM118.749 43.4765C116.167 43.4765 114.118 43.2133 112.602 42.6866C111.114 42.1599 110.048 41.3562 109.402 40.2752C108.757 39.1665 108.434 37.7113 108.434 35.9098V13.9578H114.581V24.9338C114.946 24.0191 115.62 23.3955 116.602 23.0629C117.585 22.7025 119.114 22.5224 121.192 22.5224C122.96 22.5224 124.378 22.6609 125.444 22.9381C126.539 23.2153 127.367 23.6587 127.928 24.2685C128.462 24.8784 128.827 25.5574 129.023 26.3058C129.22 27.0264 129.318 28.0242 129.318 29.2992V35.9098C129.318 38.626 128.49 40.5662 126.834 41.7304C125.178 42.8945 122.483 43.4765 118.749 43.4765ZM118.834 39.6932C120.041 39.6932 120.953 39.61 121.571 39.4437C122.188 39.2774 122.609 38.9864 122.834 38.5706C123.058 38.1549 123.171 37.5312 123.171 36.6997V29.2576C123.171 28.343 123.072 27.6916 122.876 27.3036C122.679 26.8878 122.286 26.6106 121.697 26.4721C121.107 26.3335 120.139 26.2642 118.792 26.2642C117.641 26.2642 116.757 26.3611 116.139 26.5552C115.549 26.7493 115.142 27.0541 114.918 27.4699C114.693 27.8856 114.581 28.4815 114.581 29.2576V36.6997C114.581 37.5312 114.679 38.1549 114.876 38.5706C115.1 38.9864 115.507 39.2774 116.097 39.4437C116.714 39.61 117.627 39.6932 118.834 39.6932ZM139.901 43.4765C137.992 43.4765 136.561 43.3102 135.606 42.9776C134.68 42.6173 134.02 41.9936 133.628 41.1067C133.263 40.1921 133.08 38.8339 133.08 37.0323C133.08 35.4247 133.277 34.1636 133.67 33.2489C134.091 32.3342 134.75 31.6828 135.649 31.2949C136.575 30.8791 137.838 30.6712 139.438 30.6712H146.343V29.2992C146.343 28.4399 146.217 27.8025 145.964 27.3867C145.74 26.971 145.305 26.6799 144.659 26.5136C144.042 26.3473 143.101 26.2642 141.838 26.2642C140.098 26.2642 137.712 26.4305 134.68 26.7631V22.9381C136.898 22.6609 139.494 22.5224 142.47 22.5224C145.08 22.5224 147.087 22.7164 148.491 23.1044C149.922 23.4924 150.947 24.1576 151.564 25.1001C152.182 26.0425 152.49 27.4145 152.49 29.2161V43.0608H146.47V41.2315C145.992 42.0352 145.347 42.6035 144.533 42.9361C143.719 43.2964 142.175 43.4765 139.901 43.4765ZM142.301 39.6932C143.536 39.6932 144.42 39.6516 144.954 39.5684C145.347 39.513 145.613 39.4299 145.754 39.319C145.922 39.2081 146.063 39.0279 146.175 38.7785C146.287 38.5844 146.343 38.2934 146.343 37.9054V33.9973H142.133C141.178 33.9973 140.505 34.0666 140.112 34.2052C139.719 34.3161 139.452 34.5655 139.312 34.9535C139.171 35.3139 139.101 35.9651 139.101 36.9076C139.101 37.8222 139.171 38.4597 139.312 38.8201C139.452 39.1804 139.719 39.4159 140.112 39.5268C140.533 39.6378 141.263 39.6932 142.301 39.6932ZM167.836 43.4765C166.77 43.4765 165.928 43.4488 165.31 43.3934C164.692 43.3656 163.934 43.2964 163.036 43.1855C162.138 43.0746 161.394 42.8807 160.805 42.6035C160.244 42.3262 159.654 41.9105 159.036 41.3562C157.886 40.4137 157.31 38.8063 157.31 36.5334V29.8397C157.31 28.0104 157.731 26.4859 158.573 25.2664C158.881 24.8228 159.331 24.421 159.92 24.0607C160.538 23.6727 161.155 23.3677 161.773 23.146C162.278 22.9797 162.952 22.8412 163.794 22.7302C164.636 22.6193 165.38 22.5501 166.026 22.5224H168.257C169.829 22.5224 171.892 22.7718 174.447 23.2707V27.262C171.555 26.5968 169.338 26.2642 167.794 26.2642C164.959 26.2642 163.541 27.2066 163.541 29.0913V36.4918C163.541 38.626 165.099 39.6932 168.215 39.6932C169.731 39.6932 171.907 39.3883 174.741 38.7785V42.7698C172.186 43.2409 169.886 43.4765 167.836 43.4765ZM178.212 13.9578H184.359V43.0608H178.212V13.9578ZM184.612 31.7522L191.307 22.9381H198.338L191.265 31.7106L198.928 43.0608H191.98L184.612 31.7522Z" fill="#181818"/>
<path d="M36.0605 4.32715H39.3448V9.732H45.1553V4.32715H48.4395V17.8185H45.1553V12.0394H39.3448V17.8185H36.0605V4.32715ZM56.3666 18.0264C52.7596 18.0264 50.956 16.9384 50.956 14.7627V11.1456C50.956 9.88445 51.3631 8.96978 52.1771 8.40157C53.0052 7.83336 54.2754 7.54927 55.9876 7.54927C57.6017 7.54927 58.7807 7.82645 59.5245 8.38078C60.2824 8.92127 60.6613 9.84287 60.6613 11.1456V13.5985H54.0508V14.5132C54.0508 15.0953 54.2613 15.511 54.6823 15.7605C55.1034 16.0099 55.8613 16.1347 56.956 16.1347C57.9666 16.1347 59.1034 15.9891 60.3666 15.6981V17.6314C59.1175 17.8947 57.7842 18.0264 56.3666 18.0264ZM57.735 11.8731V10.418C57.735 10.0854 57.5947 9.83594 57.3139 9.66963C57.0473 9.50333 56.5912 9.42018 55.9455 9.42018C55.2017 9.42018 54.7034 9.50333 54.4508 9.66963C54.1842 9.84979 54.0508 10.0992 54.0508 10.418V11.8731H57.735ZM63.0108 7.75715H65.9371V9.52412C65.9371 9.20536 66.0703 8.89355 66.3371 8.58866C66.6037 8.28378 66.9405 8.03432 67.3476 7.8403C67.7687 7.64627 68.1827 7.54927 68.5897 7.54927H69.6845V10.0646H68.6318C67.7616 10.0646 67.116 10.1963 66.695 10.4596C66.2879 10.7229 66.0845 11.1594 66.0845 11.7692V17.8185H63.0108V7.75715ZM76.2625 18.0264C75.6309 18.0264 75.1117 18.0056 74.7046 17.964C74.2975 17.9224 73.8625 17.8393 73.3993 17.7145C72.8941 17.576 72.487 17.3819 72.1783 17.1325C71.8696 16.8692 71.6099 16.5019 71.3993 16.0307C71.1888 15.5734 71.0836 15.0191 71.0836 14.3677V11.395C71.0836 10.7298 71.1888 10.1478 71.3993 9.64884C71.6099 9.14994 71.8835 8.7619 72.2204 8.48472C72.5151 8.24912 72.9011 8.05511 73.3783 7.90266C73.8696 7.73636 74.3467 7.63242 74.8099 7.59084C75.3433 7.56312 75.8275 7.54927 76.2625 7.54927C76.9081 7.54927 77.4204 7.57006 77.7993 7.61163C78.1923 7.63935 78.6204 7.72251 79.0836 7.86109C79.5888 8.01354 79.9959 8.22142 80.3046 8.48472C80.6275 8.74803 80.9011 9.12221 81.1257 9.60727C81.3362 10.1062 81.4414 10.7021 81.4414 11.395V14.3677C81.4414 14.9913 81.3362 15.5388 81.1257 16.0099C80.9291 16.4811 80.6696 16.8484 80.3467 17.1117C80.066 17.3473 79.6801 17.5413 79.1888 17.6938C78.7117 17.8323 78.2414 17.9224 77.7783 17.964C77.3572 18.0056 76.852 18.0264 76.2625 18.0264ZM76.2625 16.1347C76.838 16.1347 77.273 16.0931 77.5678 16.0099C77.8625 15.913 78.066 15.7675 78.1783 15.5734C78.3046 15.3793 78.3678 15.0953 78.3678 14.7211V10.9169C78.3678 10.3626 78.2204 9.97452 77.9257 9.75278C77.6309 9.53105 77.0765 9.42018 76.2625 9.42018C75.4485 9.42018 74.8941 9.53105 74.5993 9.75278C74.3046 9.97452 74.1572 10.3626 74.1572 10.9169V14.7211C74.1572 15.0953 74.2133 15.3793 74.3257 15.5734C74.452 15.7675 74.6625 15.913 74.9572 16.0099C75.252 16.0931 75.687 16.1347 76.2625 16.1347Z" fill="#F30000"/>
<path d="M9.02256 4.45483H0V44.5457H9.02256V4.45483Z" fill="#181818"/>
<path d="M31.5789 4.45483H0V11.8791H31.5789V4.45483Z" fill="#181818"/>
<path d="M28.5714 23.7578H0V31.182H28.5714V23.7578Z" fill="#181818"/>
</svg>
