<svg width="150" height="19" viewBox="0 0 150 19" fill="none" xmlns="http://www.w3.org/2000/svg">
<path fill-rule="evenodd" clip-rule="evenodd" d="M32.8802 13.1681H29.3413C29.3413 12.0597 29.0302 12.0759 28.7367 12.0759C28.4433 12.0759 28.315 12.4279 28.315 12.7452V14.084C28.315 14.7719 28.5908 15.1416 29.2507 15.1416H32.7159C33.5409 15.1416 33.9811 14.5069 33.9811 13.7135V11.4943H38.1061V18.9985H27.3802C26.2801 18.9985 25.3998 18.4808 25.0703 17.8099C24.74 18.4808 23.8604 18.9985 22.7604 18.9985H19.6247V15.224H20.9444C21.7694 15.224 22.1206 14.6371 22.1206 14.0686V11.968C22.1206 11.0367 21.6043 10.3134 20.5043 10.107C21.6051 9.89901 22.1206 9.17571 22.1206 8.2452V6.14385C22.1206 5.57537 21.7694 4.98764 20.9444 4.98764H19.6247V1.21398H22.7604C23.8604 1.21398 24.7408 1.73085 25.0703 2.40254C25.4006 1.73008 26.2801 1.21398 27.3802 1.21398H38.1061V8.71815H33.9811V6.49895C33.9811 5.70632 33.5409 5.07237 32.7159 5.07237H29.2507C28.5908 5.07237 28.315 5.44211 28.315 6.12921V7.46797C28.315 7.78533 28.4441 8.13736 28.7367 8.13736C29.0302 8.13736 29.3413 8.15507 29.3413 7.04508H32.8802V13.1681ZM97.9528 13.1681H94.4139C94.4139 12.0597 94.102 12.0759 93.8077 12.0759C93.5151 12.0759 93.3868 12.4279 93.3868 12.7452V14.084C93.3868 14.7719 93.6626 15.1416 94.3216 15.1416H97.7869C98.6119 15.1416 99.052 14.5069 99.052 13.7135V11.4943H103.178V18.9985H92.4511C91.3519 18.9985 90.4716 18.4808 90.1413 17.8099C89.8109 18.4808 88.9306 18.9985 87.8314 18.9985H84.6949V15.224H86.0146C86.8396 15.224 87.1908 14.6371 87.1908 14.0686V11.968C87.1908 11.0367 86.6753 10.3134 85.5744 10.107C86.6753 9.89901 87.1908 9.17571 87.1908 8.2452V6.14385C87.1908 5.57537 86.8396 4.98764 86.0146 4.98764H84.6949V1.21398H87.8314C88.9306 1.21398 89.8109 1.73085 90.1413 2.40254C90.4716 1.73008 91.3519 1.21398 92.4511 1.21398H103.178V8.71815H99.052V6.49895C99.052 5.70632 98.6119 5.07237 97.7869 5.07237H94.3216C93.6626 5.07237 93.3868 5.44211 93.3868 6.12921V7.46797C93.3868 7.78533 93.5151 8.13736 93.8077 8.13736C94.102 8.13736 94.4139 8.15507 94.4139 7.04508H97.9528V13.1681ZM18.4822 8.71892V1.21475H7.75624C6.65623 1.21475 5.77589 1.73162 5.44557 2.40331C5.11524 1.73085 4.23571 1.21475 3.13569 1.21475H0V4.98841H1.3197C2.14471 4.98841 2.49588 5.57614 2.49588 6.14462V8.24597C2.49588 9.17648 1.98035 9.89978 0.879533 10.1078C1.98035 10.3142 2.49588 11.0375 2.49588 11.9688V14.0694C2.49588 14.6378 2.14471 15.2248 1.3197 15.2248H0V18.9992H3.13569C4.23571 18.9992 5.11524 18.4816 5.44557 17.8107C5.77589 18.4816 6.65623 18.9992 7.75624 18.9992H11.8083V15.1416H9.62595C8.9661 15.1416 8.6911 14.7719 8.6911 14.084V12.7452C8.6911 12.4279 8.81938 12.0759 9.11282 12.0759C9.40627 12.0759 9.71735 12.0597 9.71735 13.1681H13.2563V7.04585H9.71735C9.71735 8.15584 9.40547 8.13813 9.11282 8.13813C8.81938 8.13813 8.6911 7.78533 8.6911 7.46874V6.12998C8.6911 5.44288 8.9661 5.07314 9.62595 5.07314H13.0912C13.9162 5.07314 14.3563 5.70709 14.3563 6.49972V8.71892H18.4822ZM49.1408 6.19468C49.1408 5.46521 49.4158 5.07237 50.0756 5.07237H51.7257C53.1191 5.07237 53.9995 5.50219 53.9995 6.69922C53.9995 7.89625 53.1191 8.32608 51.7257 8.32608H50.0756C49.4158 8.32608 49.1408 7.93323 49.1408 7.20377V6.19468ZM48.2051 1.21552C47.1051 1.21552 46.2248 1.73239 45.8944 2.40408C45.5649 1.73162 44.6846 1.21552 43.5846 1.21552H40.4489V4.98918H41.7694C42.5936 4.98918 42.9448 5.57691 42.9448 6.14539V8.24674C42.9448 9.17725 42.4284 9.90055 41.3284 10.1085C42.4284 10.315 42.9448 11.0383 42.9448 11.9696V14.0701C42.9448 14.6386 42.5936 15.2256 41.7694 15.2256H40.4489V19H43.5846C44.6846 19 45.5649 18.4824 45.8944 17.8114C46.2248 18.4824 47.1051 19 48.2051 19H52.2572V15.1424H50.0748C49.415 15.1424 49.14 14.7726 49.14 14.0848V12.746C49.14 12.4286 49.2683 12.0766 49.5617 12.0766H51.7249C52.9532 12.0766 53.4478 12.9478 53.4478 14.4283V15.6438C53.4478 17.3346 54.4933 18.8667 57.2987 18.8667H61.3139V14.7988H60.6541C59.8291 14.7988 59.4442 14.587 59.4442 13.6357V13.001C59.4442 11.8394 58.6192 10.412 57.4085 10.1486C58.8389 9.56625 60.0487 8.77362 60.0487 5.97361C60.0487 3.0673 58.1237 1.21706 55.7032 1.21706L48.2051 1.21552ZM71.2173 6.19468C71.2173 5.46521 71.4923 5.07237 72.1529 5.07237H73.803C75.1964 5.07237 76.0768 5.50219 76.0768 6.69922C76.0768 7.89625 75.1964 8.32608 73.803 8.32608H72.1529C71.4931 8.32608 71.2173 7.93323 71.2173 7.20377V6.19468ZM70.2824 1.21552C69.1824 1.21552 68.3021 1.73239 67.9726 2.40408C67.6422 1.73162 66.7627 1.21552 65.6627 1.21552H62.5262V4.98918H63.8467C64.6717 4.98918 65.0229 5.57691 65.0229 6.14539V8.24674C65.0229 9.17725 64.5065 9.90055 63.4065 10.1085C64.5065 10.315 65.0229 11.0383 65.0229 11.9696V14.0701C65.0229 14.6386 64.6717 15.2256 63.8467 15.2256H62.5262V19H65.6619C66.7619 19 67.6422 18.4824 67.9718 17.8114C68.3021 18.4824 69.1816 19 70.2816 19H74.3337V15.1424H72.1521C71.4923 15.1424 71.2165 14.7726 71.2165 14.0848V12.746C71.2165 12.4286 71.3456 12.0766 71.6382 12.0766H73.8014C75.0297 12.0766 75.5243 12.9478 75.5243 14.4283V15.6438C75.5243 17.3346 76.5706 18.8667 79.3752 18.8667H83.392V14.7988H82.7314C81.9064 14.7988 81.5207 14.587 81.5207 13.6357V13.001C81.5207 11.8394 80.6957 10.412 79.4867 10.1486C80.9162 9.56625 82.1269 8.77362 82.1269 5.97361C82.1269 3.0673 80.201 1.21706 77.7813 1.21706C75.3608 1.21552 70.2824 1.21552 70.2824 1.21552ZM114.455 6.19468C114.455 5.46521 114.729 5.07237 115.39 5.07237H117.039C118.432 5.07237 119.313 5.50219 119.313 6.69922C119.313 7.89625 118.432 8.32608 117.039 8.32608H115.39C114.729 8.32608 114.455 7.93323 114.455 7.20377V6.19468ZM113.518 1.21552C112.419 1.21552 111.539 1.73239 111.208 2.40408C110.878 1.73162 109.998 1.21552 108.898 1.21552H105.764V4.98918H107.083C107.907 4.98918 108.259 5.57691 108.259 6.14539V8.24674C108.259 9.17725 107.742 9.90055 106.643 10.1085C107.742 10.315 108.259 11.0383 108.259 11.9696V14.0701C108.259 14.6386 107.908 15.2256 107.083 15.2256H105.764V19H108.898C109.998 19 110.878 18.4824 111.208 17.8114C111.539 18.4824 112.419 19 113.518 19H117.571V15.1424H115.39C114.729 15.1424 114.455 14.7726 114.455 14.0848V12.746C114.455 12.4286 114.581 12.0766 114.876 12.0766H117.038C118.267 12.0766 118.762 12.9478 118.762 14.4283V15.6438C118.762 17.3346 119.806 18.8667 122.613 18.8667H126.628V14.7988H125.969C125.144 14.7988 124.758 14.587 124.758 13.6357V13.001C124.758 11.8394 123.933 10.412 122.722 10.1486C124.152 9.56625 125.363 8.77362 125.363 5.97361C125.363 3.0673 123.438 1.21706 121.017 1.21706C118.598 1.21552 113.518 1.21552 113.518 1.21552ZM148.403 6.94032C148.733 8.43392 149.173 8.92305 150 9.44531C149.173 9.9668 148.733 10.4567 148.403 11.9495C147.026 18.0032 141.685 18.8914 138.326 18.8914C134.968 18.8914 129.627 18.004 128.251 11.9495C127.921 10.4567 127.479 9.9668 126.654 9.44531C127.479 8.92305 127.921 8.43392 128.251 6.94032C129.628 0.887377 134.968 0 138.326 0C141.685 0 147.026 0.886607 148.403 6.94032ZM138.326 4.17421C136.732 4.17421 134.989 5.26648 134.989 7.38016C134.989 8.34919 135.466 8.98314 136.291 9.35365C135.466 9.72262 134.989 10.3573 134.989 11.3264C134.989 13.44 136.732 14.5323 138.326 14.5323C139.921 14.5323 141.662 13.44 141.662 11.3264C141.662 10.3573 141.186 9.72262 140.361 9.35365C141.186 8.98314 141.662 8.34919 141.662 7.38016C141.662 5.26648 139.922 4.17421 138.326 4.17421Z" fill="#202731" fill-opacity="0.5"/>
</svg>
