<svg width="188" height="33" viewBox="0 0 188 33" fill="none" xmlns="http://www.w3.org/2000/svg">
<path d="M49.1728 24.9867H35.9829L40.4227 8.01624H43.2346L39.5347 22.1689H49.9091L49.1728 24.9867Z" fill="#202731" fill-opacity="0.5"/>
<path d="M65.4144 24.9865H51.8804L56.3157 8.01526H69.8505L69.1105 10.8331H58.3758L57.3865 14.62H67.5795L66.8396 17.4386H56.6495L55.4115 22.1679H66.1514L65.4144 24.9865Z" fill="#202731" fill-opacity="0.5"/>
<path d="M81.0969 24.9872H72.648C71.2923 24.9872 70.3319 24.6353 69.7939 23.9417C69.2352 23.223 69.1376 22.1488 69.5031 20.7476L71.7482 12.1622C72.4571 9.44961 74.2692 8.01526 76.9894 8.01526H85.4376C86.7932 8.01526 87.7537 8.36648 88.2931 9.05935C88.8518 9.77946 88.9495 10.8537 88.5832 12.2535L86.3389 20.8396C85.63 23.5522 83.8178 24.9865 81.0969 24.9865V24.9872ZM76.3486 10.8331C75.9246 10.8003 75.5035 10.9252 75.1667 11.1837C74.83 11.4421 74.6017 11.8157 74.526 12.2321L72.2698 20.8654C72.2056 21.0246 72.1783 21.1962 72.1899 21.3675C72.2016 21.5387 72.2519 21.7051 72.3372 21.8542C72.4621 21.9746 72.6126 22.0655 72.7776 22.1202C72.9425 22.1749 73.1178 22.1919 73.2903 22.1701H81.7385C82.1625 22.2029 82.5836 22.078 82.9203 21.8196C83.257 21.5611 83.4853 21.1875 83.561 20.7711L85.8172 12.1386C85.9059 11.9848 85.9466 11.8083 85.9341 11.6314C85.9217 11.4545 85.8565 11.2853 85.7471 11.1454C85.6377 11.0055 85.4889 10.9011 85.3196 10.8457C85.1504 10.7902 84.9684 10.7861 84.7968 10.8339L76.3486 10.8331Z" fill="#202731" fill-opacity="0.5"/>
<path d="M105.857 24.9865H104.445L94.3532 12.2785L91.0315 24.9865H88.5444L92.9842 8.016H95.304L95.4084 8.15222L104.642 20.1268L107.809 8.01526H110.297L105.857 24.9865Z" fill="#202731" fill-opacity="0.5"/>
<path d="M144.535 24.9872H141.586L140.522 17.5807H134.085L132.144 24.9872H129.348L133.784 8.01526H144.797C146.154 8.01526 147.115 8.36648 147.653 9.05935C148.211 9.77872 148.309 10.8537 147.942 12.2535L147.636 13.4316C147.013 15.8128 145.613 17.1823 143.468 17.5063L144.535 24.9872ZM134.82 14.7614H143.034C143.458 14.7945 143.879 14.6697 144.216 14.4112C144.552 14.1526 144.78 13.7789 144.856 13.3624L145.178 12.1364C145.266 11.9825 145.306 11.806 145.294 11.6292C145.281 11.4524 145.216 11.2833 145.106 11.1435C144.997 11.0036 144.848 10.8993 144.679 10.8438C144.51 10.7883 144.328 10.784 144.156 10.8317H135.844L134.82 14.7614Z" fill="#202731" fill-opacity="0.5"/>
<path d="M159.532 24.9862H147.574L152.014 8.01428H163.872C165.588 8.01428 166.711 8.38611 167.304 9.14967C167.932 9.95961 167.993 11.2305 167.491 13.1493L165.672 20.1074C164.766 23.5725 162.988 24.9855 159.53 24.9855L159.532 24.9862ZM151.105 22.1669H160.172C161.874 22.1669 162.46 21.7001 162.906 19.9926L164.719 13.0573C164.975 12.0787 164.984 11.5316 164.75 11.229C164.537 10.9551 164.068 10.8329 163.231 10.8329H154.069L151.105 22.1669Z" fill="#202731" fill-opacity="0.5"/>
<path d="M180.296 24.9872H171.847C170.492 24.9872 169.532 24.636 168.992 23.9424C168.434 23.223 168.336 22.1488 168.702 20.7483L170.946 12.1629C171.656 9.44959 173.468 8.01526 176.187 8.01526H184.637C185.992 8.01526 186.953 8.36793 187.492 9.06007C188.05 9.77944 188.148 10.853 187.782 12.2542L185.537 20.8403C184.828 23.5529 183.016 24.9872 180.295 24.9872H180.296ZM175.546 10.8339C175.122 10.8004 174.701 10.9251 174.365 11.1837C174.028 11.4423 173.8 11.8163 173.725 12.2328L171.468 20.8654C171.404 21.0248 171.376 21.1966 171.388 21.3681C171.399 21.5396 171.45 21.7063 171.535 21.8557C171.66 21.9759 171.81 22.0666 171.975 22.1211C172.14 22.1756 172.315 22.1926 172.487 22.1708H180.937C181.361 22.2037 181.782 22.0788 182.119 21.8203C182.456 21.5618 182.684 21.1882 182.76 20.7718L185.016 12.1393C185.08 11.9801 185.108 11.8083 185.096 11.6369C185.085 11.4656 185.035 11.299 184.949 11.1497C184.824 11.0293 184.673 10.9385 184.508 10.8839C184.343 10.8293 184.168 10.8125 183.995 10.8346L175.546 10.8339Z" fill="#202731" fill-opacity="0.5"/>
<path d="M126.129 24.9858H123.162L125.102 17.5204H114.011L112.076 24.9858H109.109L112.439 12.1409C113.169 9.34732 114.96 7.93213 117.76 7.93213H126.209C127.59 7.93213 128.576 8.29366 129.129 9.00788C129.706 9.74934 129.806 10.8487 129.433 12.2727L126.129 24.9858ZM114.78 14.5368H125.876L126.504 12.1173C126.56 11.9693 126.584 11.8112 126.574 11.6533C126.565 11.4954 126.523 11.3412 126.45 11.2006C126.33 11.0944 126.189 11.0144 126.036 10.9655C125.883 10.9167 125.721 10.9003 125.562 10.9171H117.115C116.709 10.8773 116.302 10.9932 115.979 11.2413C115.655 11.4893 115.439 11.8508 115.374 12.2521L114.78 14.5368Z" fill="#202731" fill-opacity="0.5"/>
<path d="M24.73 24.6664C14.5488 21.9583 10.1245 17.7694 10.1245 17.7694C10.1245 17.7694 14.4866 25.0972 21.335 27.9872L21.7191 28.147L21.8308 28.186C21.9588 28.2346 22.0868 28.2832 22.2156 28.3274C22.3129 28.3643 22.4194 28.3699 22.5202 28.3435C22.6209 28.3171 22.7108 28.26 22.7772 28.1801L25.0186 25.4801C25.0734 25.4131 25.1099 25.3333 25.1248 25.2482C25.1396 25.1632 25.1321 25.0757 25.1031 24.9944C25.0741 24.913 25.0246 24.8404 24.9592 24.7836C24.8939 24.7269 24.8149 24.6878 24.73 24.6701" fill="#202731" fill-opacity="0.5"/>
<path d="M27.3911 13.9867C26.8393 13.9157 26.2839 13.8771 25.7276 13.8711C21.606 13.8711 10.6855 15.8334 10.6855 15.8334L27.3252 18.18H27.3489L27.3718 18.1704C27.3988 18.1592 27.4238 18.1438 27.4458 18.1248C27.5033 18.081 27.5501 18.0248 27.5825 17.9603C27.6149 17.8959 27.6322 17.825 27.633 17.7529C27.6841 17.2589 27.8432 15.5543 27.9068 14.6317C27.9164 14.479 27.8687 14.3283 27.7731 14.2086C27.6774 14.0889 27.5405 14.0088 27.3888 13.9838" fill="#202731" fill-opacity="0.5"/>
<path d="M10.6846 13.3384C15.8725 8.60765 24.8046 6.93252 25.7178 6.74402C25.799 6.72902 25.8752 6.69438 25.9398 6.64315C26.0044 6.59193 26.0554 6.52569 26.0882 6.45027C26.121 6.37485 26.1347 6.29256 26.128 6.21064C26.1214 6.12872 26.0946 6.04968 26.05 5.98048C25.7229 5.46064 24.4776 3.77155 23.9973 3.17808C23.9312 3.09767 23.8422 3.03904 23.7419 3.00986C23.6417 2.98069 23.535 2.98234 23.4357 3.01461L23.3661 3.03892L23.3277 3.0529V3.04186L22.7978 3.24066C16.3409 5.68816 12.3909 10.9086 10.6846 13.3384Z" fill="#202731" fill-opacity="0.5"/>
<path d="M8.06979 13.3409C8.18788 12.554 8.35819 11.7757 8.57962 11.0112C10.3067 5.9984 14.085 2.25943 15.6286 0.886204C15.7097 0.815677 15.7662 0.721397 15.7902 0.616896C15.8141 0.512396 15.8041 0.403039 15.7618 0.304512C15.7188 0.208232 15.6464 0.127912 15.5548 0.0750216C15.4633 0.0221309 15.3572 -0.000623289 15.2519 0.00999217L11.9842 0.277997C11.8697 0.282706 11.7567 0.306106 11.6497 0.347228C11.5924 0.36641 11.5422 0.40264 11.5062 0.451042L10.9645 1.14612C10.8069 1.34861 10.6501 1.56875 10.5146 1.77934C10.492 1.80888 10.4717 1.84016 10.454 1.87286L10.1802 2.32054C8.44638 5.72246 7.71477 9.54291 8.06979 13.3409Z" fill="#202731" fill-opacity="0.5"/>
<path d="M6.42038 13.5822C5.32773 11.4042 4.69297 9.02729 4.55492 6.59684L4.54234 6.19261C4.53966 6.07578 4.50024 5.96271 4.42963 5.86933C4.35901 5.77595 4.26075 5.70696 4.14868 5.67204C4.03567 5.63913 3.91507 5.64279 3.80429 5.68249C3.6935 5.72219 3.59826 5.79588 3.53228 5.89293C2.98634 6.82675 2.5288 7.80905 2.16556 8.82714C2.13863 8.89487 2.12555 8.96725 2.12707 9.04007C2.1286 9.11289 2.1447 9.18469 2.17444 9.25125C2.99507 11.1657 6.41964 13.5808 6.41964 13.5808" fill="#202731" fill-opacity="0.5"/>
<path d="M1.7166 21.364C1.67455 21.4206 1.64426 21.485 1.62749 21.5534C1.61072 21.6218 1.60781 21.6928 1.61892 21.7623C1.76875 22.8395 2.02275 23.8998 2.37739 24.9285C2.42145 25.0394 2.50157 25.1324 2.60498 25.1928C2.70838 25.2531 2.82911 25.2772 2.9479 25.2613C3.27349 25.2546 3.4015 24.7702 3.51694 24.4396C4.24998 22.1328 5.19471 19.898 6.33918 17.7634C6.33918 17.7634 3.10256 19.4982 1.7166 21.3618" fill="#202731" fill-opacity="0.5"/>
<path d="M14.9488 30.4836L14.7098 30.2311L14.6868 30.206C11.2565 26.9451 8.96048 22.6808 8.13219 18.0326C8.13219 18.0326 6.83502 27.4331 11.7543 32.8891C11.8004 32.9257 11.8536 32.9526 11.9105 32.9679L12.0622 32.9974L15.782 32.4017L15.8678 32.3767C15.9817 32.3274 16.0723 32.2364 16.1209 32.1227C16.1634 32.0284 16.1756 31.9234 16.156 31.822C16.1364 31.7205 16.0859 31.6276 16.0114 31.5557C15.7775 31.3304 15.4113 30.9755 14.9503 30.4807" fill="#202731" fill-opacity="0.5"/>
<path d="M5.99069 15.4594L4.31096 15.0987C3.25623 14.8945 2.25223 14.4857 1.35627 13.8955C1.30441 13.8524 1.255 13.8064 1.20828 13.7578C1.14278 13.6871 1.05947 13.635 0.966974 13.607C0.874473 13.5791 0.776142 13.5762 0.68216 13.5988H0.659221C0.564268 13.6259 0.4782 13.6775 0.409723 13.7484C0.341247 13.8192 0.29279 13.9068 0.269257 14.0023C0.107622 14.8683 0.0204845 15.7465 0.00878906 16.6272C0.0253712 16.6931 0.0559451 16.7546 0.098451 16.8077C0.140957 16.8608 0.194407 16.9042 0.255198 16.935L0.420211 16.9836L0.519367 16.9704C1.30891 16.857 3.5155 16.1795 4.42862 15.8931L5.99069 15.4594Z" fill="#202731" fill-opacity="0.5"/>
</svg>
