<svg width="178" height="23" viewBox="0 0 178 23" fill="none" xmlns="http://www.w3.org/2000/svg">
<path fill-rule="evenodd" clip-rule="evenodd" d="M73.9186 15.9403C73.8882 17.9521 74.4149 19.686 76.6178 19.686C78.2616 19.686 79.2845 18.9106 79.5023 17.4568H84.9614C84.775 19.4686 83.5029 20.9244 82.0141 21.7919C80.6488 22.6573 78.9118 22.999 77.0816 22.999C70.8467 22.999 68.3653 20.335 68.3653 14.2357C68.3653 9.31323 72.0571 6.52594 76.7413 6.52594C83.0704 6.52594 85.086 10.1493 85.086 15.9403H73.9186ZM79.5023 12.7809C79.5023 11.9448 79.2531 11.1087 78.7882 10.4587C78.3234 9.80862 77.6407 9.40524 76.7413 9.46893C74.6944 9.56093 74.1982 11.0168 74.0422 12.7809H79.5023ZM0 22.5339V0.177937H10.2984C15.7888 0.177937 19.3874 1.94313 19.3874 7.36102C19.3874 12.7799 15.7888 14.5451 10.2984 14.5451H6.20352V22.5329H0V22.5339ZM9.39897 10.211C11.85 10.118 12.8739 9.00387 12.8739 7.36203C12.8739 5.7222 11.85 4.60607 9.39897 4.51407H6.20453V10.212H9.39897V10.211ZM37.7123 14.7625C37.7123 20.4897 33.5243 22.998 28.6537 22.998C23.784 22.998 19.596 20.4897 19.596 14.7625C19.596 9.03319 23.784 6.52594 28.6537 6.52594C33.5243 6.52594 37.7123 9.03319 37.7123 14.7625ZM28.6537 19.593C31.1361 19.593 31.6628 16.9604 31.6628 14.7635C31.6628 12.5646 31.1361 9.93297 28.6537 9.93297C26.1733 9.93297 25.6456 12.5656 25.6456 14.7635C25.6456 16.9604 26.1733 19.593 28.6537 19.593ZM47.9803 11.7891C47.9803 11.2624 47.8871 10.7994 47.6086 10.489C47.2977 10.1493 46.8024 9.93196 45.9952 9.93196C45.1272 9.93196 44.5995 10.4263 44.5995 11.3261C44.5995 12.4706 46.9877 12.4089 50.6785 13.5553C52.54 14.1427 53.8121 15.2892 53.8121 17.8278C53.8121 21.9466 49.934 22.999 46.3669 22.999C42.5516 22.999 38.8295 22.2246 38.8609 17.4871H44.4445C44.3514 17.9521 44.5073 18.4778 44.8476 18.8812C45.189 19.2826 45.6852 19.593 46.2433 19.593C47.3908 19.593 48.2274 19.1593 48.2274 18.1685C48.2274 15.4125 39.0148 17.0534 39.0148 11.4181C39.0148 7.57938 43.1086 6.52594 46.2109 6.52594C49.9026 6.52594 53.3148 7.48537 53.563 11.7891H47.9803ZM57.6943 6.98998V4.63639L63.5868 2.40717V6.98998H67V10.7064H63.5868V16.8684C63.5868 17.2707 63.3407 19.2836 64.705 19.2836C65.4798 19.2836 66.287 19.2836 66.9686 19.1906V22.6886C65.6348 22.9373 64.6736 23 63.8036 23C59.8029 23 57.3833 22.4419 57.6932 17.6741V10.7064H54.6538V6.98998H57.6943ZM87.6302 6.83328H90.5856V22.4258H87.6302V6.83328ZM87.3506 0H90.8671V3.20079H87.3506V0ZM95.3276 6.83328V3.50914L98.283 2.57701V6.83227L101.893 6.73925V8.94523L98.283 8.91288V18.9783C98.283 20.0944 99.155 20.6232 100.213 20.6232C100.68 20.6232 101.301 20.5615 101.77 20.4382V22.7048C101.085 22.7361 100.431 22.8928 99.7465 22.8928C99.0305 22.8928 98.4724 22.8615 97.7543 22.7372C97.2894 22.6441 96.5096 22.3944 96.0112 21.711C95.4836 20.9659 95.3266 20.9032 95.3266 18.8236V8.91288L92.6497 8.94523V6.73925L95.3276 6.83328ZM113.499 12.7981C113.499 10.0947 113.345 8.51051 110.201 8.51051C108.707 8.51051 107.307 9.38097 107.275 10.9965H104.163C104.317 7.57938 106.996 6.36822 110.076 6.36822C113.281 6.36822 116.456 7.33068 116.456 11.68V19.135C116.456 19.8174 116.487 21.1226 116.581 22.4268H114.588C114.308 22.4268 113.779 22.5815 113.748 22.2094C113.686 21.4957 113.623 20.8122 113.594 20.0964H113.531C112.568 22.0537 110.825 22.8949 108.677 22.8949C105.97 22.8949 103.231 21.4956 103.231 18.4516C103.231 14.0709 107.122 12.7981 110.825 12.7981H113.499ZM110.545 14.8474C108.739 14.9414 106.342 15.5925 106.342 17.8601C106.342 19.7851 107.681 20.7485 109.424 20.7485C112.909 20.7485 113.562 17.7358 113.499 14.8464H110.545V14.8474ZM119.396 0H122.352V22.4268H119.396V0ZM126.027 6.83328H128.985V22.4258H126.027V6.83328ZM125.748 0H129.265V3.20079H125.748V0ZM141.919 12.7981C141.919 10.0947 141.765 8.51051 138.622 8.51051C137.128 8.51051 135.728 9.38097 135.698 10.9965H132.584C132.74 7.57938 135.417 6.36822 138.497 6.36822C141.702 6.36822 144.877 7.33068 144.877 11.68V19.135C144.877 19.8174 144.908 21.1226 145.001 22.4268H143.009C142.729 22.4268 142.2 22.5815 142.168 22.2094C142.107 21.4957 142.044 20.8122 142.015 20.0964H141.952C140.989 22.0537 139.245 22.8949 137.097 22.8949C134.391 22.8949 131.651 21.4956 131.651 18.4516C131.651 14.0709 135.543 12.7981 139.245 12.7981H141.919ZM138.964 14.8474C137.16 14.9414 134.763 15.5925 134.763 17.8601C134.763 19.7851 136.102 20.7485 137.845 20.7485C141.33 20.7485 141.983 17.7358 141.919 14.8464H138.964V14.8474ZM150.829 9.13328H150.892C151.886 7.176 154.067 6.36822 155.622 6.36822C156.71 6.36822 161.535 6.64726 161.535 11.6486V22.4268H158.577V12.6121C158.577 10.0341 157.489 8.63486 155.001 8.63486C155.001 8.63486 153.38 8.54185 152.137 9.78536C151.701 10.2201 150.892 10.9035 150.892 13.9466V22.4268H147.936V6.83328H150.828V9.13328H150.829ZM166.985 15.1891C166.767 17.9228 167.887 20.7495 170.905 20.7495C173.207 20.7495 174.359 19.8487 174.701 17.5801H177.813C177.348 21.1216 174.608 22.8939 170.873 22.8939C165.864 22.8939 163.872 19.3524 163.872 14.7544C163.872 10.1877 166.174 6.36721 171.122 6.36721C175.79 6.46022 178 9.4113 178 13.7282V15.1881H166.985V15.1891ZM174.89 13.1398C174.952 10.5295 173.768 8.51051 170.905 8.51051C168.446 8.51051 166.985 10.5921 166.985 13.1398H174.89Z" fill="#202731" fill-opacity="0.5"/>
</svg>
