<svg width="45" height="34" viewBox="0 0 45 34" fill="none" xmlns="http://www.w3.org/2000/svg">
<path d="M10.2278 13.5591C9.72756 13.5591 9.24749 13.6363 8.76966 13.7067C8.92445 13.1798 9.08372 12.6438 9.33946 12.1623C9.5952 11.4628 9.99451 10.8564 10.3916 10.2454C10.7236 9.5845 11.3091 9.13707 11.7398 8.57154C12.1907 8.02191 12.8054 7.65624 13.2922 7.19973C13.77 6.72278 14.3959 6.4843 14.8939 6.14816C15.4144 5.84609 15.8675 5.51222 16.3521 5.35324L17.5612 4.84903L18.6246 4.4016L17.5366 0L16.1973 0.327053C15.7688 0.436071 15.2461 0.563259 14.6517 0.71543C14.0437 0.82899 13.3954 1.14015 12.673 1.42405C11.9597 1.74656 11.1341 1.9646 10.3669 2.48243C9.5952 2.97755 8.7046 3.39091 7.91944 4.05411C7.15895 4.73774 6.24143 5.33053 5.56395 6.2004C4.82365 7.01349 4.09233 7.86747 3.52477 8.83955C2.86748 9.7662 2.42105 10.7837 1.94996 11.7898C1.52373 12.796 1.1805 13.8248 0.900082 14.8242C0.368415 16.8274 0.130623 18.7307 0.0386463 20.3591C-0.0376267 21.9898 0.00723977 23.3458 0.101459 24.3269C0.135109 24.7902 0.197922 25.2399 0.242789 25.5511L0.298872 25.9327L0.357198 25.919C0.756198 27.806 1.67471 29.5401 3.00648 30.9206C4.33825 32.3012 6.02886 33.2718 7.88274 33.7202C9.73661 34.1687 11.678 34.0765 13.4823 33.4545C15.2867 32.8325 16.8802 31.7061 18.0786 30.2055C19.277 28.7048 20.0312 26.8914 20.2542 24.9749C20.4771 23.0584 20.1595 21.1171 19.3382 19.3757C18.517 17.6343 17.2255 16.1639 15.6133 15.1345C14.001 14.1052 12.1339 13.559 10.2278 13.5591ZM34.9044 13.5591C34.4041 13.5591 33.924 13.6363 33.4462 13.7067C33.601 13.1798 33.7603 12.6438 34.016 12.1623C34.2717 11.4628 34.6711 10.8564 35.0681 10.2454C35.4001 9.5845 35.9856 9.13707 36.4164 8.57154C36.8673 8.02191 37.4819 7.65624 37.9687 7.19973C38.4466 6.72278 39.0725 6.4843 39.5705 6.14816C40.0909 5.84609 40.5441 5.51222 41.0286 5.35324L42.2378 4.84903L43.3011 4.4016L42.2131 0L40.8738 0.327053C40.4454 0.436071 39.9227 0.563259 39.3282 0.71543C38.7203 0.82899 38.0719 1.14015 37.3496 1.42405C36.6385 1.74883 35.8107 1.9646 35.0435 2.4847C34.2717 2.97983 33.3811 3.39319 32.596 4.05638C31.8355 4.74001 30.918 5.3328 30.2405 6.2004C29.5002 7.01349 28.7689 7.86747 28.2013 8.83955C27.544 9.7662 27.0976 10.7837 26.6265 11.7898C26.2003 12.796 25.857 13.8248 25.5766 14.8242C25.045 16.8274 24.8072 18.7307 24.7152 20.3591C24.6389 21.9898 24.6838 23.3458 24.778 24.3269C24.8117 24.7902 24.8745 25.2399 24.9193 25.5511L24.9754 25.9327L25.0337 25.919C25.4327 27.806 26.3513 29.5401 27.683 30.9206C29.0148 32.3012 30.7054 33.2718 32.5593 33.7202C34.4132 34.1687 36.3546 34.0765 38.1589 33.4545C39.9632 32.8325 41.5567 31.7061 42.7551 30.2055C43.9535 28.7048 44.7078 26.8914 44.9307 24.9749C45.1536 23.0584 44.8361 21.1171 44.0148 19.3757C43.1935 17.6343 41.902 16.1639 40.2898 15.1345C38.6776 14.1052 36.8104 13.559 34.9044 13.5591Z" fill="#03A8B7"/>
</svg>
