<svg width="87" height="111" viewBox="0 0 87 111" fill="none" xmlns="http://www.w3.org/2000/svg">
<path d="M83.3676 43.2136V53.9468C83.3676 75.7923 65.5347 93.5513 43.5374 93.5513C21.5403 93.5513 3.7124 75.7923 3.7124 53.9468V43.2136C3.7124 21.368 21.5403 3.68408 43.5374 3.68408C65.384 3.68408 83.1215 21.5727 83.3676 43.2136Z" fill="#202731" fill-opacity="0.5"/>
<path d="M66.5982 48.1376L72.8021 41.9753C72.9302 41.8506 73.1024 41.7808 73.2818 41.7808C73.4612 41.7808 73.6334 41.8506 73.7615 41.9753L79.9605 48.1376C80.2267 48.402 80.2267 48.8261 79.9605 49.0906L73.7615 55.248C73.6987 55.3109 73.624 55.3607 73.5417 55.3948C73.4593 55.4288 73.371 55.4463 73.2819 55.4463C73.1927 55.4463 73.1044 55.4288 73.0221 55.3948C72.9398 55.3607 72.865 55.3109 72.8022 55.248L66.5982 49.0907C66.4727 48.9634 66.4023 48.7923 66.4023 48.6141C66.4023 48.436 66.4727 48.2649 66.5982 48.1376Z" fill="white"/>
<path d="M7.0571 48.1377L13.261 41.9754C13.5272 41.7159 13.9542 41.7159 14.2153 41.9754L20.4193 48.1377C20.6855 48.4021 20.6855 48.8262 20.4193 49.0906L14.2155 55.248C13.9542 55.5124 13.5272 55.5124 13.261 55.248L7.0571 49.0907C6.99383 49.0283 6.94361 48.954 6.90934 48.8722C6.87508 48.7905 6.85742 48.7028 6.85742 48.6142C6.85742 48.5256 6.87508 48.4379 6.90934 48.3561C6.94361 48.2743 6.99383 48.2001 7.0571 48.1377Z" fill="white"/>
<path d="M37.9557 66.8027C38.5936 69.2676 40.8291 71.0589 43.5015 71.0589C46.6762 71.0589 49.2431 68.5092 49.2431 65.3606C49.2431 63.7939 48.6053 62.3618 47.5703 61.3339L37.1168 49.7924L36.4437 49.049C36.4036 49.004 36.3683 48.9392 36.3683 48.8644C36.3683 48.7097 36.499 48.5899 36.6497 48.5899H43.0694C43.3558 48.5899 43.632 48.7095 43.808 48.9042L44.6468 49.7924L51.6242 57.3221C53.6889 59.3828 54.9799 62.232 54.9799 65.3705C54.9799 71.6627 49.841 76.7674 43.5015 76.7674C38.3425 76.7674 33.9722 73.3543 32.5305 68.7088H26.9747C28.537 76.3532 35.3435 82.1314 43.5115 82.1314C52.8349 82.1314 60.39 74.6267 60.39 65.3707C60.39 60.7301 58.5011 56.5436 55.4469 53.5098L52.0712 49.7924L51.3932 49.049C51.3667 49.0259 51.3453 48.9975 51.3306 48.9657C51.3159 48.9339 51.3081 48.8994 51.3078 48.8644C51.3078 48.7097 51.4384 48.5899 51.5892 48.5899H58.245C58.3839 48.5894 58.5215 48.617 58.6493 48.6711C58.7772 48.7251 58.8926 48.8044 58.9885 48.9042L59.8073 49.7924C63.7154 53.8292 66.1216 59.298 66.1216 65.3456C66.1216 77.7653 55.9945 87.8198 43.5015 87.8198C31.0084 87.8198 20.8965 77.7753 20.8965 65.3607C20.8965 64.2528 21.8207 63.3597 22.936 63.3597H36.5894C37.147 63.3597 37.5539 63.8038 37.599 64.3627C37.6291 65.1959 37.7497 66.0393 37.9557 66.8027Z" fill="white"/>
<path d="M50.4388 33.8394C49.8762 33.8394 49.4643 33.3902 49.4342 32.8314C49.399 32.0031 49.2785 31.1598 49.0725 30.3963C48.4445 27.9314 46.1891 26.125 43.5167 26.125C40.347 26.125 37.775 28.6747 37.775 31.8284C37.775 33.3903 38.423 34.8124 39.4579 35.8503L48.6806 46.0595L49.3539 46.793C49.3989 46.8479 49.4342 46.9127 49.4342 46.9875C49.4342 47.1322 49.3036 47.2519 49.1528 47.2519H42.733C42.5943 47.2526 42.4571 47.2246 42.3299 47.1696C42.2028 47.1146 42.0886 47.0339 41.9946 46.9326L41.1658 46.0595L35.404 39.8671C33.3293 37.8012 32.0433 34.9571 32.0433 31.8134C32.0433 25.5262 37.1772 20.4166 43.5168 20.4166C48.6806 20.4166 53.051 23.8197 54.4926 28.4802H60.0486C58.4862 20.8209 51.6747 15.0575 43.5117 15.0575C34.1935 15.0575 26.6332 22.5622 26.6332 31.8134C26.6332 36.444 28.5169 40.6355 31.5711 43.6743L33.7412 46.0595L34.4144 46.793C34.4646 46.8479 34.4998 46.9127 34.4998 46.9875C34.4998 47.1322 34.3692 47.2519 34.2184 47.2519H27.5123C27.2209 47.2519 26.9547 47.1324 26.7689 46.9326L26.0103 46.0595C22.7602 42.2122 20.8965 37.2324 20.8965 31.8385C20.8965 19.4187 31.0287 9.36914 43.5167 9.36914C56.0097 9.36914 66.1217 19.4087 66.1217 31.8134C66.1217 32.9311 65.2175 33.8394 64.0923 33.8394H50.4388Z" fill="white"/>
<path d="M13.7257 110.081H14.5445C14.8257 109.796 15.0367 109.641 15.1823 109.641C15.3883 109.641 15.9962 110.265 17.6589 110.265C20.2258 110.265 21.8987 108.539 21.8987 106.523C21.8987 104.761 21.0346 103.808 19.1056 103.045C17.3676 102.366 16.3026 102.082 16.3026 100.944C16.3026 100.165 16.9355 99.6216 17.8649 99.6216C18.744 99.6216 19.3669 100.036 19.7135 100.844C19.9546 101.403 19.9897 101.897 20.5926 101.897H21.0697V99.0628H20.4168C20.261 99.2673 20.1404 99.3671 20.0047 99.3671C19.6431 99.3671 18.8847 98.6885 17.4781 98.6885C15.5591 98.6885 14.0723 100.006 14.0723 101.807C14.0723 103.319 14.9362 104.282 16.6944 105.046C18.3923 105.779 19.6231 106.138 19.6231 107.551C19.6231 108.549 18.7841 109.347 17.5735 109.347C16.5639 109.347 15.6898 108.823 15.313 108.119C14.8408 107.266 14.8157 106.917 14.1577 106.917H13.7256V110.081" fill="#202731" fill-opacity="0.5"/>
<path fill-rule="evenodd" clip-rule="evenodd" d="M29.7263 102.065L31.1228 105.892H28.2847L29.7263 102.065ZM31.5096 106.955L31.9867 108.332C32.0372 108.472 32.0723 108.606 32.0723 108.746C32.0723 109.27 31.3387 109.076 31.3387 109.709V110.083H35.9653V109.709C35.9653 109.285 35.7594 109.25 35.4831 109.165C35.0862 109.011 34.9758 108.761 34.7497 108.187L31.1781 98.9113C31.0978 98.7266 31.0324 98.6069 30.9018 98.6069C30.7761 98.6069 30.716 98.6618 30.6054 98.7266L29.1788 99.515C28.9929 99.6247 28.8874 99.7245 28.8874 99.8194C28.8874 99.8543 28.8874 99.8943 28.9225 99.964L29.229 100.707L26.4662 107.873C26.2099 108.542 26.024 108.846 25.5871 109.065C25.3157 109.205 25.0596 109.315 25.0596 109.709V110.083H28.154V109.709C28.154 109.01 27.3251 109.185 27.3251 108.716C27.3251 108.636 27.3804 108.407 27.491 108.092L27.8977 106.955H31.5095" fill="#202731" fill-opacity="0.5"/>
<path fill-rule="evenodd" clip-rule="evenodd" d="M42.5969 99.9127C42.8933 99.8778 43.1697 99.8778 43.3907 99.8778C44.5762 99.8778 45.2945 100.656 45.2945 101.904C45.2945 103.291 44.5611 103.959 42.9837 103.959C42.8682 103.959 42.7275 103.959 42.597 103.949L42.5969 99.9127ZM42.6573 107.876V104.898H43.1847L45.9827 110.087H49.253V109.703C49.253 109.308 48.9516 109.308 48.5547 109.099C48.3387 108.994 48.1378 108.695 47.8616 108.216L46.6508 105.97C46.2489 105.242 45.9928 104.658 44.7218 104.419C44.8324 104.419 44.9279 104.443 45.0233 104.443C46.9422 104.443 48.0071 103.425 48.0071 101.639C48.0071 100.741 47.5802 99.8578 46.8719 99.3738C46.264 98.9596 45.4753 98.8848 44.4154 98.8848H39.166V99.244C39.166 99.6282 39.4222 99.6831 39.6683 99.8677C39.9597 100.077 39.9949 100.317 39.9949 100.721V108.236C39.9949 108.65 39.9597 108.869 39.6683 109.099C39.4222 109.288 39.166 109.333 39.166 109.713V110.087H43.4912V109.713C43.4912 109.383 43.3153 109.318 43.0742 109.169C42.6573 108.869 42.6573 108.675 42.6573 108.051V107.876Z" fill="#202731" fill-opacity="0.5"/>
<path fill-rule="evenodd" clip-rule="evenodd" d="M55.996 102.065L57.4026 105.892H54.5645L55.996 102.065ZM57.7894 106.955L58.2665 108.332C58.3169 108.472 58.352 108.606 58.352 108.746C58.352 109.27 57.6085 109.076 57.6085 109.709V110.083H62.2401V109.709C62.2401 109.285 62.034 109.25 61.763 109.165C61.366 109.011 61.2555 108.761 61.0294 108.187L57.4528 98.9113C57.3674 98.7266 57.3122 98.6069 57.1815 98.6069C57.0509 98.6069 56.9857 98.6618 56.8751 98.7266L55.4586 99.515C55.2626 99.6247 55.1672 99.7245 55.1672 99.8194C55.1672 99.8543 55.1672 99.8943 55.2023 99.964L55.4987 100.707L52.7459 107.873C52.4896 108.542 52.2938 108.846 51.8667 109.065C51.5905 109.205 51.3394 109.315 51.3394 109.709V110.083H54.4338V109.709C54.4338 109.01 53.6048 109.185 53.6048 108.716C53.6048 108.636 53.65 108.407 53.7606 108.092L54.1775 106.955H57.7893" fill="#202731" fill-opacity="0.5"/>
<path d="M65.9111 110.081H66.7199C67.0112 109.796 67.2172 109.641 67.3629 109.641C67.5638 109.641 68.1717 110.265 69.8344 110.265C72.4064 110.265 74.0841 108.539 74.0841 106.523C74.0841 104.761 73.2202 103.808 71.2862 103.045C69.548 102.366 68.4781 102.082 68.4781 100.944C68.4781 100.165 69.1211 99.6216 70.0403 99.6216C70.9194 99.6216 71.5424 100.036 71.8939 100.844C72.1301 101.403 72.1653 101.897 72.773 101.897H73.2503V99.0628H72.6021C72.4365 99.2673 72.326 99.3671 72.1803 99.3671C71.8286 99.3671 71.0651 98.6885 69.6585 98.6885C67.7446 98.6885 66.2577 100.006 66.2577 101.807C66.2577 103.319 67.1218 104.282 68.8798 105.046C70.5678 105.779 71.7985 106.138 71.7985 107.551C71.7985 108.549 70.9697 109.347 69.7589 109.347C68.7493 109.347 67.8752 108.823 67.4884 108.119C67.0263 107.266 66.9961 106.917 66.3381 106.917H65.9111V110.081Z" fill="#202731" fill-opacity="0.5"/>
<path d="M86.0603 54.067V43.0942M86.0604 54.0668C85.8343 77.3596 66.8762 96.1963 43.5276 96.1963C20.164 96.1963 1.19585 77.3795 1 54.067L86.0604 54.0668ZM1 43.0942C1.22106 19.8017 20.1842 1 43.5276 1C66.9013 1 85.8594 19.7816 86.0603 43.0942H1ZM1 54.067V43.0942V54.067Z" stroke="#202731" stroke-opacity="0.5" stroke-width="0.660501" stroke-miterlimit="3.864"/>
</svg>
