<svg width="40" height="40" viewBox="0 0 40 40" fill="none" xmlns="http://www.w3.org/2000/svg">
<path d="M29.9998 3.33337H21.6665C21.6665 4.25004 20.9165 5.00004 19.9998 5.00004C19.0832 5.00004 18.3332 4.25004 18.3332 3.33337H9.99984C8.1665 3.33337 6.6665 4.83337 6.6665 6.66671V33.3334C6.6665 35.1667 8.1665 36.6667 9.99984 36.6667H29.9998C31.8332 36.6667 33.3332 35.1667 33.3332 33.3334V6.66671C33.3332 4.83337 31.8332 3.33337 29.9998 3.33337Z" fill="#455A64"/>
<path d="M29.9998 34.1667H9.99984C9.49984 34.1667 9.1665 33.8334 9.1665 33.3334V6.66671C9.1665 6.16671 9.49984 5.83337 9.99984 5.83337H29.9998C30.4998 5.83337 30.8332 6.16671 30.8332 6.66671V33.3334C30.8332 33.8334 30.4998 34.1667 29.9998 34.1667Z" fill="white"/>
<path d="M21.6667 3.33337C21.6667 4.25004 20.9167 5.00004 20 5.00004C19.0833 5.00004 18.3333 4.25004 18.3333 3.33337H12.5V6.66671C12.5 7.58337 13.25 8.33337 14.1667 8.33337H25.8333C26.75 8.33337 27.5 7.58337 27.5 6.66671V3.33337H21.6667Z" fill="#90A4AE"/>
<path d="M19.9998 0C18.1665 0 16.6665 1.5 16.6665 3.33333C16.6665 5.16667 18.1665 6.66667 19.9998 6.66667C21.8332 6.66667 23.3332 5.16667 23.3332 3.33333C23.3332 1.5 21.8332 0 19.9998 0ZM19.9998 5C19.0832 5 18.3332 4.25 18.3332 3.33333C18.3332 2.41667 19.0832 1.66667 19.9998 1.66667C20.9165 1.66667 21.6665 2.41667 21.6665 3.33333C21.6665 4.25 20.9165 5 19.9998 5Z" fill="#90A4AE"/>
<path d="M17.5 16.6667H27.5V18.3334H17.5V16.6667Z" fill="#CFD8DC"/>
<path d="M12.5 15.8334H15.8333V19.1667H12.5V15.8334Z" fill="#CFD8DC"/>
<path d="M17.5 24.1667H27.5V25.8334H17.5V24.1667Z" fill="#03A8B7"/>
<path d="M12.5 23.3334H15.8333V26.6667H12.5V23.3334Z" fill="#03A8B7"/>
</svg>
