<svg width="33" height="33" viewBox="0 0 33 33" fill="none" xmlns="http://www.w3.org/2000/svg">
<path d="M31.4327 16.0184L17.1827 1.76843C16.6127 1.19843 15.821 0.850098 14.9502 0.850098H3.86686C2.1252 0.850098 0.700195 2.2751 0.700195 4.01676V15.1001C0.700195 15.9709 1.04853 16.7626 1.63436 17.3484L15.8844 31.5984C16.4544 32.1684 17.246 32.5168 18.1169 32.5168C18.9877 32.5168 19.7794 32.1684 20.3494 31.5826L31.4327 20.4993C32.0185 19.9293 32.3669 19.1376 32.3669 18.2668C32.3669 17.3959 32.0027 16.5884 31.4327 16.0184ZM6.24186 8.76676C4.9277 8.76676 3.86686 7.70593 3.86686 6.39176C3.86686 5.0776 4.9277 4.01676 6.24186 4.01676C7.55603 4.01676 8.61686 5.0776 8.61686 6.39176C8.61686 7.70593 7.55603 8.76676 6.24186 8.76676ZM24.8777 21.8609L18.1169 28.6218L11.356 21.8609C10.801 21.3073 10.4229 20.6014 10.2696 19.8326C10.1162 19.0638 10.1946 18.2668 10.4948 17.5427C10.795 16.8185 11.3034 16.1998 11.9557 15.7649C12.6079 15.3301 13.3746 15.0987 14.1585 15.1001C15.251 15.1001 16.2485 15.5434 16.961 16.2718L18.1169 17.4118L19.2727 16.2559C20.016 15.5127 21.0241 15.0951 22.0752 15.0951C23.1263 15.0951 24.1344 15.5127 24.8777 16.2559C25.621 16.9992 26.0385 18.0073 26.0385 19.0584C26.0385 20.1096 25.621 21.1177 24.8777 21.8609Z" fill="#03A8B7"/>
</svg>
