<svg width="39" height="39" viewBox="0 0 39 39" fill="none" xmlns="http://www.w3.org/2000/svg">
<path d="M29.3719 2.52515L36.153 9.5939V36.4746H10.8213V36.5624H36.2395V9.68287L29.3719 2.52515Z" fill="#909090"/>
<path d="M29.2879 2.4375H10.7349V36.4748H36.1531V9.59522L29.2867 2.4375" fill="white"/>
<path d="M10.5481 4.26562H2.76025V12.586H27.2571V4.26562H10.5481Z" fill="#7A7B7C"/>
<path d="M27.3878 12.4447H2.91895V4.11816H27.3878V12.4447Z" fill="#03A8B7"/>
<path d="M11.0324 5.52588H9.43945V11.3759H10.6923V9.40272L10.969 9.41857C11.2378 9.41394 11.5041 9.36579 11.7575 9.27597C11.9797 9.19955 12.1841 9.07891 12.3584 8.92132C12.5357 8.77119 12.6755 8.58172 12.7666 8.368C12.8889 8.01274 12.9325 7.63517 12.8946 7.26138C12.887 6.99436 12.8402 6.72991 12.7557 6.4765C12.6787 6.29358 12.5646 6.12867 12.4204 5.99229C12.2763 5.8559 12.1053 5.75102 11.9184 5.68432C11.7568 5.62581 11.5898 5.58336 11.4199 5.55757C11.2913 5.53771 11.1613 5.52712 11.0311 5.52588H11.0324ZM10.8008 8.32169H10.6923V6.51794H10.9275C11.0314 6.51046 11.1355 6.52639 11.2324 6.56457C11.3292 6.60276 11.4162 6.66221 11.487 6.73854C11.6336 6.93477 11.7119 7.17363 11.71 7.4186C11.71 7.71841 11.71 7.99019 11.4394 8.18154C11.2445 8.28874 11.0226 8.33701 10.8008 8.32047" fill="#464648"/>
<path d="M15.2745 5.50993C15.1393 5.50993 15.0076 5.51968 14.915 5.52334L14.6249 5.53065H13.6743V11.3807H14.7931C15.2207 11.3924 15.6464 11.3199 16.046 11.1674C16.3676 11.0398 16.6525 10.8341 16.8748 10.569C17.0909 10.3014 17.2461 9.98986 17.3293 9.65612C17.4251 9.27815 17.4718 8.88942 17.4683 8.49953C17.4919 8.03903 17.4563 7.57741 17.3623 7.126C17.273 6.79372 17.1059 6.48748 16.8748 6.23265C16.6934 6.02688 16.4714 5.8609 16.2227 5.74515C16.0092 5.64633 15.7845 5.5735 15.5536 5.52822C15.4618 5.51305 15.3688 5.50611 15.2758 5.5075L15.2745 5.50993ZM15.0539 10.3057H14.9321V6.57147H14.9479C15.1992 6.54256 15.4534 6.58789 15.6792 6.70187C15.8445 6.8339 15.9792 7.00022 16.074 7.18937C16.1764 7.38844 16.2353 7.60692 16.2471 7.83043C16.2581 8.09856 16.2471 8.31793 16.2471 8.49953C16.2521 8.70871 16.2386 8.91792 16.2069 9.12475C16.1693 9.33709 16.0999 9.54253 16.0009 9.73412C15.8889 9.91225 15.7376 10.0623 15.5585 10.1729C15.4081 10.2701 15.2301 10.3155 15.0515 10.3021" fill="#464648"/>
<path d="M21.2428 5.53076H18.2812V11.3808H19.5341V9.06026H21.1185V7.97314H19.5341V6.61789H21.2404V5.53076" fill="#464648"/>
<path d="M26.5453 24.6857C26.5453 24.6857 30.4307 23.9813 30.4307 25.3085C30.4307 26.6357 28.0237 26.0958 26.5453 24.6857ZM23.6727 24.7869C23.0554 24.9233 22.4538 25.123 21.8775 25.3828L22.365 24.286C22.8525 23.1891 23.3583 21.6937 23.3583 21.6937C23.94 22.6727 24.6169 23.5921 25.379 24.4383C24.8043 24.524 24.2346 24.6412 23.6727 24.7893V24.7869ZM22.1347 16.865C22.1347 15.7084 22.5088 15.3927 22.8001 15.3927C23.0914 15.3927 23.4192 15.5329 23.4302 16.5372C23.3353 17.547 23.1239 18.5424 22.8001 19.5036C22.3566 18.6966 22.1271 17.7895 22.1335 16.8687L22.1347 16.865ZM16.4687 29.6814C15.2768 28.9684 18.9684 26.7734 19.6375 26.7027C19.6338 26.704 17.7167 30.4272 16.4687 29.6814ZM31.5654 25.4657C31.5532 25.3438 31.4435 23.9947 29.0426 24.052C28.0418 24.0358 27.0415 24.1064 26.053 24.2628C25.0953 23.298 24.2707 22.2099 23.6008 21.027C24.0229 19.8076 24.2783 18.5367 24.3601 17.2489C24.3248 15.7864 23.975 14.9479 22.8537 14.9601C21.7325 14.9723 21.5692 15.9534 21.7167 17.4134C21.8611 18.3946 22.1336 19.3526 22.5271 20.2629C22.5271 20.2629 22.0092 21.8753 21.3242 23.4792C20.6393 25.083 20.1713 25.924 20.1713 25.924C18.9802 26.3117 17.859 26.8877 16.8502 27.6302C15.8459 28.565 15.4377 29.2828 15.9666 30.0007C16.4224 30.6198 18.0177 30.76 19.4437 28.8916C20.2013 27.9266 20.8935 26.912 21.5156 25.8545C21.5156 25.8545 23.6898 25.2585 24.3662 25.0952C25.0426 24.9319 25.8604 24.8027 25.8604 24.8027C25.8604 24.8027 27.8457 26.8002 29.7604 26.7296C31.6751 26.6589 31.5824 25.5852 31.5702 25.4682" fill="#03A8B7"/>
<path d="M29.1938 2.53149V9.68921H36.0591L29.1938 2.53149Z" fill="#909090"/>
<path d="M29.2876 2.4375V9.59522H36.1528L29.2876 2.4375Z" fill="#F4F4F4"/>
<path d="M10.9381 5.43188H9.34521V11.2819H10.603V9.30995L10.8808 9.32579C11.1497 9.32117 11.416 9.27301 11.6694 9.1832C11.8915 9.10675 12.0959 8.98611 12.2702 8.82854C12.4462 8.67801 12.5847 8.48857 12.6748 8.27523C12.7971 7.91996 12.8407 7.54239 12.8028 7.1686C12.7952 6.90158 12.7484 6.63713 12.6639 6.38373C12.5869 6.2008 12.4728 6.0359 12.3286 5.89951C12.1845 5.76312 12.0135 5.65824 11.8266 5.59154C11.6642 5.53247 11.4965 5.4896 11.3257 5.46357C11.197 5.44372 11.0671 5.43313 10.9369 5.43188H10.9381ZM10.7066 8.2277H10.5981V6.42395H10.8345C10.9383 6.41646 11.0425 6.4324 11.1393 6.47058C11.2362 6.50876 11.3232 6.56821 11.3939 6.64454C11.5406 6.84078 11.6189 7.07964 11.617 7.3246C11.617 7.62442 11.617 7.8962 11.3464 8.08754C11.1515 8.19475 10.9296 8.24302 10.7078 8.22648" fill="white"/>
<path d="M15.181 5.41618C15.0458 5.41618 14.9141 5.42593 14.8215 5.42959L14.5351 5.4369H13.5845V11.2869H14.7033C15.1309 11.2986 15.5566 11.2262 15.9562 11.0736C16.2778 10.946 16.5626 10.7404 16.7849 10.4752C17.0011 10.2076 17.1562 9.89611 17.2395 9.56237C17.3353 9.1844 17.3819 8.79567 17.3784 8.40578C17.4021 7.94528 17.3664 7.48366 17.2724 7.03225C17.1832 6.69997 17.0161 6.39373 16.7849 6.1389C16.6036 5.93313 16.3815 5.76715 16.1329 5.6514C15.9193 5.55258 15.6947 5.47975 15.4638 5.43447C15.372 5.4193 15.279 5.41236 15.1859 5.41375L15.181 5.41618ZM14.9641 10.212H14.8422V6.47772H14.8581C15.1093 6.44881 15.3635 6.49414 15.5893 6.60812C15.7547 6.74015 15.8894 6.90647 15.9842 7.09562C16.0865 7.29469 16.1455 7.51317 16.1573 7.73668C16.1682 8.00481 16.1573 8.22418 16.1573 8.40578C16.1622 8.61496 16.1488 8.82417 16.117 9.031C16.0795 9.24334 16.01 9.44878 15.9111 9.64037C15.7991 9.8185 15.6477 9.96859 15.4687 10.0791C15.3183 10.1764 15.1402 10.2217 14.9617 10.2083" fill="white"/>
<path d="M21.1491 5.43677H18.1875V11.2868H19.4404V8.96627H21.0247V7.87914H19.4404V6.52389H21.1466V5.43677" fill="white"/>
</svg>
