<svg width="25" height="27" viewBox="0 0 25 27" fill="none" xmlns="http://www.w3.org/2000/svg">
<path d="M20.7444 18.616C20.1988 18.6182 19.6593 18.7344 19.1582 18.9577C18.6572 19.181 18.2048 19.5068 17.8284 19.9156L7.95468 14.8013C8.19756 14.039 8.19756 13.2161 7.95468 12.4538L17.8446 7.24739C18.553 8.02007 19.5137 8.49253 20.5398 8.57294C21.566 8.65334 22.5844 8.33593 23.3971 7.68242C24.2098 7.02891 24.7587 6.08597 24.9372 5.03689C25.1156 3.98781 24.9108 2.90752 24.3626 2.00601C23.8144 1.1045 22.962 0.446166 21.971 0.158967C20.98 -0.128232 19.9212 -0.0237775 19.0004 0.452027C18.0797 0.927832 17.3627 1.741 16.989 2.73347C16.6152 3.72594 16.6112 4.82681 16.9779 5.82211L7.18519 10.9782C6.65631 10.3087 5.94032 9.82494 5.13537 9.59315C4.33042 9.36137 3.47591 9.39295 2.68898 9.68357C1.90206 9.97418 1.22122 10.5096 0.739819 11.2165C0.258414 11.9233 0 12.7669 0 13.6318C0 14.4966 0.258414 15.3402 0.739819 16.0471C1.22122 16.7539 1.90206 17.2894 2.68898 17.58C3.47591 17.8706 4.33042 17.9022 5.13537 17.6704C5.94032 17.4386 6.65631 16.9548 7.18519 16.2853L16.9536 21.3744C16.7886 21.8331 16.7036 22.3185 16.7025 22.808C16.7025 23.6371 16.9401 24.4476 17.3851 25.137C17.8301 25.8263 18.4626 26.3636 19.2026 26.6809C19.9426 26.9982 20.757 27.0812 21.5426 26.9194C22.3282 26.7577 23.0498 26.3585 23.6162 25.7722C24.1826 25.1859 24.5683 24.439 24.7246 23.6258C24.8808 22.8127 24.8006 21.9698 24.4941 21.2038C24.1876 20.4378 23.6685 19.7831 23.0025 19.3225C22.3365 18.8619 21.5535 18.616 20.7525 18.616H20.7444ZM20.7444 1.84811C21.225 1.84811 21.6948 1.99563 22.0944 2.272C22.494 2.54837 22.8054 2.94119 22.9894 3.40078C23.1733 3.86037 23.2214 4.36609 23.1276 4.85399C23.0339 5.34189 22.8024 5.79005 22.4626 6.14181C22.1228 6.49357 21.6898 6.73311 21.2184 6.83016C20.7471 6.92721 20.2585 6.8774 19.8145 6.68703C19.3704 6.49667 18.9909 6.17429 18.7239 5.76067C18.4569 5.34705 18.3144 4.86076 18.3144 4.3633C18.3144 3.69623 18.5704 3.05649 19.0261 2.5848C19.4818 2.11311 20.0999 1.84811 20.7444 1.84811ZM4.11535 16.1008C3.63474 16.1008 3.16494 15.9533 2.76533 15.677C2.36573 15.4006 2.05427 15.0078 1.87036 14.5482C1.68644 14.0886 1.63832 13.5829 1.73208 13.095C1.82584 12.6071 2.05727 12.1589 2.3971 11.8072C2.73694 11.4554 3.16992 11.2158 3.64128 11.1188C4.11265 11.0218 4.60123 11.0716 5.04525 11.2619C5.48927 11.4523 5.86877 11.7747 6.13578 12.1883C6.40279 12.6019 6.5453 13.0882 6.5453 13.5857C6.5453 14.2527 6.28929 14.8925 5.83359 15.3642C5.37788 15.8359 4.75981 16.1008 4.11535 16.1008ZM20.7444 25.3232C20.2638 25.3232 19.794 25.1757 19.3944 24.8993C18.9947 24.6229 18.6833 24.2301 18.4994 23.7705C18.3155 23.3109 18.2673 22.8052 18.3611 22.3173C18.4549 21.8294 18.6863 21.3813 19.0261 21.0295C19.366 20.6778 19.7989 20.4382 20.2703 20.3412C20.7417 20.2441 21.2303 20.2939 21.6743 20.4843C22.1183 20.6747 22.4978 20.997 22.7648 21.4107C23.0318 21.8243 23.1743 22.3106 23.1743 22.808C23.1743 23.4751 22.9183 24.1148 22.4626 24.5865C22.0069 25.0582 21.3888 25.3232 20.7444 25.3232Z" fill="#03A8B7"/>
</svg>
