<svg width="40" height="40" viewBox="0 0 40 40" fill="none" xmlns="http://www.w3.org/2000/svg">
<path d="M17.9959 27.0925V28.4205C17.9959 29.9065 19.2005 31.1111 20.6865 31.1111C22.1725 31.1111 23.3771 29.9065 23.3771 28.4205V26.8373C23.3771 26.378 23.4512 25.9216 23.5964 25.4858L23.8307 24.7831C24.0791 24.0378 24.4258 23.3289 24.8616 22.6753L26.5046 20.2107C27.1547 19.2355 27.4093 18.0495 27.2166 16.8934C27.141 16.4398 26.998 16.0001 26.7924 15.5888L26.599 15.202C26.1152 14.2345 25.3873 13.4099 24.4872 12.8098C23.7555 12.322 22.9286 11.995 22.0611 11.8504L21.9339 11.8292C21.2444 11.7143 20.5413 11.7061 19.8492 11.805L19.3571 11.8753C18.461 12.0033 17.6049 12.3304 16.8517 12.8325C15.9739 13.4177 15.264 14.2219 14.7922 15.1655L14.6014 15.5472C14.382 15.9861 14.2294 16.4553 14.1487 16.9392C13.9598 18.0725 14.1733 19.2361 14.7522 20.2285L16.754 23.6601L17.5716 25.2953C17.8506 25.8533 17.9959 26.4686 17.9959 27.0925Z" stroke="black" stroke-opacity="0.75"/>
<rect x="17.9951" y="27.3855" width="4.96731" height="0.827884" fill="black" fill-opacity="0.75"/>
<rect x="27.2744" y="10.0711" width="0.827884" height="2.48365" transform="rotate(45 27.2744 10.0711)" fill="black" fill-opacity="0.75"/>
<rect x="13.0278" y="10.5854" width="0.827884" height="2.48365" transform="rotate(-45 13.0278 10.5854)" fill="black" fill-opacity="0.75"/>
<rect x="29.4448" y="25.8304" width="0.827884" height="2.48365" transform="rotate(135 29.4448 25.8304)" fill="black" fill-opacity="0.75"/>
<rect x="13.3184" y="24.0742" width="0.827884" height="2.48365" transform="rotate(51.5259 13.3184 24.0742)" fill="black" fill-opacity="0.75"/>
<rect x="32.0708" y="18.2788" width="0.827884" height="2.48365" transform="rotate(90 32.0708 18.2788)" fill="black" fill-opacity="0.75"/>
<rect x="8.88916" y="19.1067" width="0.827884" height="2.48365" transform="rotate(-90 8.88916 19.1067)" fill="black" fill-opacity="0.75"/>
<circle cx="20" cy="20" r="19.5" stroke="black" stroke-opacity="0.75"/>
<path d="M17 18L18.7501 16L20.5001 18L22.2501 16L24 18" stroke="black" stroke-opacity="0.75"/>
</svg>
