<svg width="32" height="32" viewBox="0 0 32 32" fill="none" xmlns="http://www.w3.org/2000/svg">
<g clip-path="url(#clip0_540_261)">
<path d="M19.5151 11.9517C18.8371 11.9517 18.3351 12.1227 17.9421 12.3387C17.8791 12.1147 17.6721 11.9507 17.4281 11.9997H14.4441C14.1491 11.9507 13.9101 12.1897 14.0011 12.4997V23.4997C13.9101 23.7797 14.1491 24.0197 14.4441 23.9997H17.4281C17.7231 24.0197 17.9621 23.7797 17.9621 23.4847L17.9611 16.8367C17.9601 16.8337 17.9491 16.5157 18.1501 16.2967C18.3111 16.1227 18.5881 16.0337 18.9711 16.0337C19.6091 16.0337 19.8931 16.2947 19.9991 16.8787V23.4847C19.8941 23.7797 20.1331 24.0197 20.4281 23.9997H23.5731C23.8681 24.0197 24.1071 23.7797 24.0011 23.4847V16.6567C24.1061 13.1847 21.6331 11.9517 19.5151 11.9517ZM23.0381 22.9997H20.9621V16.8787C20.9621 15.6977 20.1991 14.9657 18.9721 14.9657C18.2781 14.9657 17.7381 15.1697 17.3661 15.5717C16.8491 16.1317 16.8891 16.8417 17.0001 16.9997V22.9997H14.9781V13.0197H16.8941V13.3557C16.8933 13.4558 16.9207 13.554 16.9733 13.6392C17.0259 13.7244 17.1014 13.793 17.1912 13.8372C17.2811 13.8814 17.3815 13.8993 17.4811 13.889C17.5806 13.8786 17.6752 13.8404 17.7541 13.7787L17.8941 13.6707C18.2991 13.3517 18.7181 13.0207 19.5161 13.0207C20.3421 13.0207 23.0391 13.2837 23.0391 16.6577V22.9997H23.0381Z" fill="#202731" fill-opacity="0.5"/>
<path d="M10.9998 6.96582C9.87782 6.96582 8.96582 7.87782 8.96582 8.99982C8.96582 10.1218 9.87782 11.0338 10.9998 11.0338C12.1218 11.0338 13.0338 10.1218 13.0338 8.99982C13.0338 7.87782 12.1218 6.96582 10.9998 6.96582ZM10.9998 9.96582C10.4678 9.96582 10.0338 9.53182 10.0338 8.99982C10.0338 8.46782 10.4678 8.03382 10.9998 8.03382C11.5318 8.03382 11.9658 8.46782 11.9658 8.99982C11.9658 9.53182 11.5318 9.96582 10.9998 9.96582Z" fill="#202731" fill-opacity="0.5"/>
<path d="M12.4279 11.9507H9.45991C9.16491 11.9507 8.92591 12.1897 8.99991 12.4997V23.4997C8.92591 23.7797 9.16491 24.0197 9.45991 23.9997H12.4279C12.7229 24.0197 12.9619 23.7797 12.9619 23.4847V12.4847C12.9619 12.3431 12.9056 12.2072 12.8055 12.1071C12.7054 12.0069 12.5695 11.9507 12.4279 11.9507ZM11.9999 22.9997H9.99391V13.0197H11.9999V22.9997Z" fill="#202731" fill-opacity="0.5"/>
<path d="M15.9998 -0.0341797C7.15782 -0.0341797 -0.0341797 7.15782 -0.0341797 15.9998C-0.0341797 24.8418 7.15782 32.0338 15.9998 32.0338C24.8418 32.0338 32.0338 24.8418 32.0338 15.9998C32.0338 7.15782 24.8418 -0.0341797 15.9998 -0.0341797ZM15.9998 30.9658C7.74782 30.9658 1.03382 24.2518 1.03382 15.9998C1.03382 7.74782 7.74782 1.03382 15.9998 1.03382C24.2518 1.03382 30.9658 7.74782 30.9658 15.9998C30.9658 24.2518 24.2518 30.9658 15.9998 30.9658Z" fill="#202731" fill-opacity="0.5"/>
</g>
<defs>
<clipPath id="clip0_540_261">
<rect width="32" height="32" fill="white"/>
</clipPath>
</defs>
</svg>
